<svg width="200" height="200" viewBox="0 0 200 200" xmlns="http://www.w3.org/2000/svg">
  <rect width="200" height="200" fill="none"/>
  
  <path d="M100 20 L110 50 L140 40 L125 65 L155 75 L125 85 L145 115 L115 105 L100 135 L85 105 L55 115 L75 85 L45 75 L75 65 L60 40 L90 50 Z" 
        fill="#005BB5" stroke="#005BB5" stroke-width="2" stroke-linejoin="round"/>
  
  <path d="M100 35 L105 55 L125 50 L115 65 L135 75 L115 85 L125 105 L105 95 L100 115 L95 95 L75 105 L85 85 L65 75 L85 65 L75 50 L95 55 Z" 
        fill="white"/>
  
  <circle cx="100" cy="75" r="10" fill="#E63946"/>
  
  <text x="100" y="170" font-family="Arial, sans-serif" font-size="18" font-weight="bold" fill="#005BB5" text-anchor="middle">
    SNOW STUDIO
  </text>
</svg>
